<?xml version="1.0" encoding="UTF-8" standalone="no"?>
<!DOCTYPE svg PUBLIC "-//W3C//DTD SVG 1.1//EN"
 "http://www.w3.org/Graphics/SVG/1.1/DTD/svg11.dtd">
<!-- Generated by graphviz version 2.40.1 (20161225.0304)
 -->
<!-- Title: G Pages: 1 -->
<svg width="467pt" height="709pt"
 viewBox="0.00 0.00 467.00 709.00" xmlns="http://www.w3.org/2000/svg" xmlns:xlink="http://www.w3.org/1999/xlink">
<g id="graph0" class="graph" transform="scale(1 1) rotate(0) translate(4 705)">
<title>G</title>
<polygon fill="#ffffff" stroke="transparent" points="-4,4 -4,-705 463,-705 463,4 -4,4"/>
<!-- 140622027814056 -->
<g id="node1" class="node">
<title>140622027814056</title>
<polygon fill="none" stroke="#000000" points="51.5,-581.5 51.5,-627.5 407.5,-627.5 407.5,-581.5 51.5,-581.5"/>
<text text-anchor="middle" x="127" y="-600.8" font-family="Times,serif" font-size="14.00" fill="#000000">conv2d_2: Conv2D</text>
<polyline fill="none" stroke="#000000" points="202.5,-581.5 202.5,-627.5 "/>
<text text-anchor="middle" x="236.5" y="-612.3" font-family="Times,serif" font-size="14.00" fill="#000000">input:</text>
<polyline fill="none" stroke="#000000" points="202.5,-604.5 270.5,-604.5 "/>
<text text-anchor="middle" x="236.5" y="-589.3" font-family="Times,serif" font-size="14.00" fill="#000000">output:</text>
<polyline fill="none" stroke="#000000" points="270.5,-581.5 270.5,-627.5 "/>
<text text-anchor="middle" x="339" y="-612.3" font-family="Times,serif" font-size="14.00" fill="#000000">(None, 24, 3, 1)</text>
<polyline fill="none" stroke="#000000" points="270.5,-604.5 407.5,-604.5 "/>
<text text-anchor="middle" x="339" y="-589.3" font-family="Times,serif" font-size="14.00" fill="#000000">(None, 24, 3, 32)</text>
</g>
<!-- 140622027815680 -->
<g id="node2" class="node">
<title>140622027815680</title>
<polygon fill="none" stroke="#000000" points="0,-498.5 0,-544.5 459,-544.5 459,-498.5 0,-498.5"/>
<text text-anchor="middle" x="127" y="-517.8" font-family="Times,serif" font-size="14.00" fill="#000000">max_pooling2d_2: MaxPooling2D</text>
<polyline fill="none" stroke="#000000" points="254,-498.5 254,-544.5 "/>
<text text-anchor="middle" x="288" y="-529.3" font-family="Times,serif" font-size="14.00" fill="#000000">input:</text>
<polyline fill="none" stroke="#000000" points="254,-521.5 322,-521.5 "/>
<text text-anchor="middle" x="288" y="-506.3" font-family="Times,serif" font-size="14.00" fill="#000000">output:</text>
<polyline fill="none" stroke="#000000" points="322,-498.5 322,-544.5 "/>
<text text-anchor="middle" x="390.5" y="-529.3" font-family="Times,serif" font-size="14.00" fill="#000000">(None, 24, 3, 32)</text>
<polyline fill="none" stroke="#000000" points="322,-521.5 459,-521.5 "/>
<text text-anchor="middle" x="390.5" y="-506.3" font-family="Times,serif" font-size="14.00" fill="#000000">(None, 12, 1, 32)</text>
</g>
<!-- 140622027814056&#45;&gt;140622027815680 -->
<g id="edge2" class="edge">
<title>140622027814056&#45;&gt;140622027815680</title>
<path fill="none" stroke="#000000" d="M229.5,-581.3799C229.5,-573.1745 229.5,-563.7679 229.5,-554.8786"/>
<polygon fill="#000000" stroke="#000000" points="233.0001,-554.784 229.5,-544.784 226.0001,-554.784 233.0001,-554.784"/>
</g>
<!-- 140622027487440 -->
<g id="node3" class="node">
<title>140622027487440</title>
<polygon fill="none" stroke="#000000" points="48.5,-415.5 48.5,-461.5 410.5,-461.5 410.5,-415.5 48.5,-415.5"/>
<text text-anchor="middle" x="127" y="-434.8" font-family="Times,serif" font-size="14.00" fill="#000000">dropout_2: Dropout</text>
<polyline fill="none" stroke="#000000" points="205.5,-415.5 205.5,-461.5 "/>
<text text-anchor="middle" x="239.5" y="-446.3" font-family="Times,serif" font-size="14.00" fill="#000000">input:</text>
<polyline fill="none" stroke="#000000" points="205.5,-438.5 273.5,-438.5 "/>
<text text-anchor="middle" x="239.5" y="-423.3" font-family="Times,serif" font-size="14.00" fill="#000000">output:</text>
<polyline fill="none" stroke="#000000" points="273.5,-415.5 273.5,-461.5 "/>
<text text-anchor="middle" x="342" y="-446.3" font-family="Times,serif" font-size="14.00" fill="#000000">(None, 12, 1, 32)</text>
<polyline fill="none" stroke="#000000" points="273.5,-438.5 410.5,-438.5 "/>
<text text-anchor="middle" x="342" y="-423.3" font-family="Times,serif" font-size="14.00" fill="#000000">(None, 12, 1, 32)</text>
</g>
<!-- 140622027815680&#45;&gt;140622027487440 -->
<g id="edge3" class="edge">
<title>140622027815680&#45;&gt;140622027487440</title>
<path fill="none" stroke="#000000" d="M229.5,-498.3799C229.5,-490.1745 229.5,-480.7679 229.5,-471.8786"/>
<polygon fill="#000000" stroke="#000000" points="233.0001,-471.784 229.5,-461.784 226.0001,-471.784 233.0001,-471.784"/>
</g>
<!-- 140622027487664 -->
<g id="node4" class="node">
<title>140622027487664</title>
<polygon fill="none" stroke="#000000" points="56.5,-332.5 56.5,-378.5 402.5,-378.5 402.5,-332.5 56.5,-332.5"/>
<text text-anchor="middle" x="127" y="-351.8" font-family="Times,serif" font-size="14.00" fill="#000000">flatten_2: Flatten</text>
<polyline fill="none" stroke="#000000" points="197.5,-332.5 197.5,-378.5 "/>
<text text-anchor="middle" x="231.5" y="-363.3" font-family="Times,serif" font-size="14.00" fill="#000000">input:</text>
<polyline fill="none" stroke="#000000" points="197.5,-355.5 265.5,-355.5 "/>
<text text-anchor="middle" x="231.5" y="-340.3" font-family="Times,serif" font-size="14.00" fill="#000000">output:</text>
<polyline fill="none" stroke="#000000" points="265.5,-332.5 265.5,-378.5 "/>
<text text-anchor="middle" x="334" y="-363.3" font-family="Times,serif" font-size="14.00" fill="#000000">(None, 12, 1, 32)</text>
<polyline fill="none" stroke="#000000" points="265.5,-355.5 402.5,-355.5 "/>
<text text-anchor="middle" x="334" y="-340.3" font-family="Times,serif" font-size="14.00" fill="#000000">(None, 384)</text>
</g>
<!-- 140622027487440&#45;&gt;140622027487664 -->
<g id="edge4" class="edge">
<title>140622027487440&#45;&gt;140622027487664</title>
<path fill="none" stroke="#000000" d="M229.5,-415.3799C229.5,-407.1745 229.5,-397.7679 229.5,-388.8786"/>
<polygon fill="#000000" stroke="#000000" points="233.0001,-388.784 229.5,-378.784 226.0001,-388.784 233.0001,-388.784"/>
</g>
<!-- 140622027487888 -->
<g id="node5" class="node">
<title>140622027487888</title>
<polygon fill="none" stroke="#000000" points="81,-249.5 81,-295.5 378,-295.5 378,-249.5 81,-249.5"/>
<text text-anchor="middle" x="145" y="-268.8" font-family="Times,serif" font-size="14.00" fill="#000000">dense_5: Dense</text>
<polyline fill="none" stroke="#000000" points="209,-249.5 209,-295.5 "/>
<text text-anchor="middle" x="243" y="-280.3" font-family="Times,serif" font-size="14.00" fill="#000000">input:</text>
<polyline fill="none" stroke="#000000" points="209,-272.5 277,-272.5 "/>
<text text-anchor="middle" x="243" y="-257.3" font-family="Times,serif" font-size="14.00" fill="#000000">output:</text>
<polyline fill="none" stroke="#000000" points="277,-249.5 277,-295.5 "/>
<text text-anchor="middle" x="327.5" y="-280.3" font-family="Times,serif" font-size="14.00" fill="#000000">(None, 384)</text>
<polyline fill="none" stroke="#000000" points="277,-272.5 378,-272.5 "/>
<text text-anchor="middle" x="327.5" y="-257.3" font-family="Times,serif" font-size="14.00" fill="#000000">(None, 128)</text>
</g>
<!-- 140622027487664&#45;&gt;140622027487888 -->
<g id="edge5" class="edge">
<title>140622027487664&#45;&gt;140622027487888</title>
<path fill="none" stroke="#000000" d="M229.5,-332.3799C229.5,-324.1745 229.5,-314.7679 229.5,-305.8786"/>
<polygon fill="#000000" stroke="#000000" points="233.0001,-305.784 229.5,-295.784 226.0001,-305.784 233.0001,-305.784"/>
</g>
<!-- 140622026923256 -->
<g id="node6" class="node">
<title>140622026923256</title>
<polygon fill="none" stroke="#000000" points="81,-166.5 81,-212.5 378,-212.5 378,-166.5 81,-166.5"/>
<text text-anchor="middle" x="145" y="-185.8" font-family="Times,serif" font-size="14.00" fill="#000000">dense_6: Dense</text>
<polyline fill="none" stroke="#000000" points="209,-166.5 209,-212.5 "/>
<text text-anchor="middle" x="243" y="-197.3" font-family="Times,serif" font-size="14.00" fill="#000000">input:</text>
<polyline fill="none" stroke="#000000" points="209,-189.5 277,-189.5 "/>
<text text-anchor="middle" x="243" y="-174.3" font-family="Times,serif" font-size="14.00" fill="#000000">output:</text>
<polyline fill="none" stroke="#000000" points="277,-166.5 277,-212.5 "/>
<text text-anchor="middle" x="327.5" y="-197.3" font-family="Times,serif" font-size="14.00" fill="#000000">(None, 128)</text>
<polyline fill="none" stroke="#000000" points="277,-189.5 378,-189.5 "/>
<text text-anchor="middle" x="327.5" y="-174.3" font-family="Times,serif" font-size="14.00" fill="#000000">(None, 64)</text>
</g>
<!-- 140622027487888&#45;&gt;140622026923256 -->
<g id="edge6" class="edge">
<title>140622027487888&#45;&gt;140622026923256</title>
<path fill="none" stroke="#000000" d="M229.5,-249.3799C229.5,-241.1745 229.5,-231.7679 229.5,-222.8786"/>
<polygon fill="#000000" stroke="#000000" points="233.0001,-222.784 229.5,-212.784 226.0001,-222.784 233.0001,-222.784"/>
</g>
<!-- 140622027111672 -->
<g id="node7" class="node">
<title>140622027111672</title>
<polygon fill="none" stroke="#000000" points="85.5,-83.5 85.5,-129.5 373.5,-129.5 373.5,-83.5 85.5,-83.5"/>
<text text-anchor="middle" x="149.5" y="-102.8" font-family="Times,serif" font-size="14.00" fill="#000000">dense_7: Dense</text>
<polyline fill="none" stroke="#000000" points="213.5,-83.5 213.5,-129.5 "/>
<text text-anchor="middle" x="247.5" y="-114.3" font-family="Times,serif" font-size="14.00" fill="#000000">input:</text>
<polyline fill="none" stroke="#000000" points="213.5,-106.5 281.5,-106.5 "/>
<text text-anchor="middle" x="247.5" y="-91.3" font-family="Times,serif" font-size="14.00" fill="#000000">output:</text>
<polyline fill="none" stroke="#000000" points="281.5,-83.5 281.5,-129.5 "/>
<text text-anchor="middle" x="327.5" y="-114.3" font-family="Times,serif" font-size="14.00" fill="#000000">(None, 64)</text>
<polyline fill="none" stroke="#000000" points="281.5,-106.5 373.5,-106.5 "/>
<text text-anchor="middle" x="327.5" y="-91.3" font-family="Times,serif" font-size="14.00" fill="#000000">(None, 32)</text>
</g>
<!-- 140622026923256&#45;&gt;140622027111672 -->
<g id="edge7" class="edge">
<title>140622026923256&#45;&gt;140622027111672</title>
<path fill="none" stroke="#000000" d="M229.5,-166.3799C229.5,-158.1745 229.5,-148.7679 229.5,-139.8786"/>
<polygon fill="#000000" stroke="#000000" points="233.0001,-139.784 229.5,-129.784 226.0001,-139.784 233.0001,-139.784"/>
</g>
<!-- 140622026859632 -->
<g id="node8" class="node">
<title>140622026859632</title>
<polygon fill="none" stroke="#000000" points="85.5,-.5 85.5,-46.5 373.5,-46.5 373.5,-.5 85.5,-.5"/>
<text text-anchor="middle" x="149.5" y="-19.8" font-family="Times,serif" font-size="14.00" fill="#000000">dense_8: Dense</text>
<polyline fill="none" stroke="#000000" points="213.5,-.5 213.5,-46.5 "/>
<text text-anchor="middle" x="247.5" y="-31.3" font-family="Times,serif" font-size="14.00" fill="#000000">input:</text>
<polyline fill="none" stroke="#000000" points="213.5,-23.5 281.5,-23.5 "/>
<text text-anchor="middle" x="247.5" y="-8.3" font-family="Times,serif" font-size="14.00" fill="#000000">output:</text>
<polyline fill="none" stroke="#000000" points="281.5,-.5 281.5,-46.5 "/>
<text text-anchor="middle" x="327.5" y="-31.3" font-family="Times,serif" font-size="14.00" fill="#000000">(None, 32)</text>
<polyline fill="none" stroke="#000000" points="281.5,-23.5 373.5,-23.5 "/>
<text text-anchor="middle" x="327.5" y="-8.3" font-family="Times,serif" font-size="14.00" fill="#000000">(None, 10)</text>
</g>
<!-- 140622027111672&#45;&gt;140622026859632 -->
<g id="edge8" class="edge">
<title>140622027111672&#45;&gt;140622026859632</title>
<path fill="none" stroke="#000000" d="M229.5,-83.3799C229.5,-75.1745 229.5,-65.7679 229.5,-56.8786"/>
<polygon fill="#000000" stroke="#000000" points="233.0001,-56.784 229.5,-46.784 226.0001,-56.784 233.0001,-56.784"/>
</g>
<!-- 140622027814112 -->
<g id="node9" class="node">
<title>140622027814112</title>
<polygon fill="none" stroke="#000000" points="153.5,-664.5 153.5,-700.5 305.5,-700.5 305.5,-664.5 153.5,-664.5"/>
<text text-anchor="middle" x="229.5" y="-678.8" font-family="Times,serif" font-size="14.00" fill="#000000">140622027814112</text>
</g>
<!-- 140622027814112&#45;&gt;140622027814056 -->
<g id="edge1" class="edge">
<title>140622027814112&#45;&gt;140622027814056</title>
<path fill="none" stroke="#000000" d="M229.5,-664.4092C229.5,-656.4308 229.5,-646.795 229.5,-637.606"/>
<polygon fill="#000000" stroke="#000000" points="233.0001,-637.5333 229.5,-627.5333 226.0001,-637.5334 233.0001,-637.5333"/>
</g>
</g>
</svg>
